<?xml version="1.0" standalone="no"?>
<!DOCTYPE svg PUBLIC "-//W3C//DTD SVG 20010904//EN"
 "http://www.w3.org/TR/2001/REC-SVG-20010904/DTD/svg10.dtd">
<svg version="1.0" xmlns="http://www.w3.org/2000/svg"
 width="951.000000pt" height="354.000000pt" viewBox="0 0 951.000000 354.000000"
 preserveAspectRatio="xMidYMid meet">

<g transform="translate(0.000000,354.000000) scale(0.100000,-0.100000)"
fill="#191970" stroke="none">
<path d="M3117 3445 c-4 -11 -10 -27 -13 -35 -5 -12 -3 -12 11 1 9 9 15 25 13
35 -4 18 -4 18 -11 -1z"/>
<path d="M3668 3399 c-11 -12 -31 -19 -52 -19 -19 0 -38 -4 -41 -10 -3 -5 -13
-10 -22 -10 -13 0 -13 3 -3 15 10 12 10 15 -2 15 -7 0 -22 -13 -31 -30 -24
-40 -35 -38 -39 8 -4 43 -26 52 -72 28 -16 -8 -34 -12 -40 -10 -6 2 -22 -5
-34 -16 -12 -12 -31 -20 -40 -18 -38 6 -141 -100 -207 -212 -18 -29 -79 -80
-97 -80 -9 0 -20 -4 -23 -10 -14 -23 -53 -10 -75 25 -12 20 -38 48 -58 63 -21
15 -40 31 -44 37 -4 6 -18 -1 -35 -16 -15 -14 -47 -40 -71 -58 -41 -32 -42
-32 -33 -8 13 33 6 37 -45 30 -28 -4 -49 -1 -59 7 -19 16 -30 11 -114 -50 -67
-49 -88 -77 -107 -140 -11 -39 -45 -78 -86 -100 -31 -16 -38 -17 -38 -5 0 25
-16 17 -46 -22 -15 -21 -34 -42 -41 -46 -7 -4 -13 -17 -13 -27 0 -11 -4 -20
-10 -20 -15 0 -12 19 10 78 24 63 26 86 5 78 -10 -4 -15 1 -15 14 0 11 -5 20
-10 20 -6 0 -8 -13 -5 -31 4 -24 0 -38 -16 -55 -12 -13 -26 -21 -30 -18 -5 3
-11 -8 -14 -23 -15 -71 -28 -113 -35 -113 -5 0 -11 22 -15 50 -4 27 -11 52
-15 55 -10 6 -45 -51 -54 -89 -4 -16 -16 -41 -27 -54 -10 -14 -19 -32 -19 -41
0 -10 -11 -32 -25 -51 -18 -25 -26 -29 -30 -18 -3 8 -1 27 5 43 8 20 8 31 0
39 -8 8 -11 7 -8 -4 3 -16 -32 -21 -45 -5 -5 6 -7 3 -3 -8 8 -25 -14 -67 -36
-67 -10 0 -18 5 -18 11 0 6 -7 9 -15 5 -16 -6 -18 5 -9 41 4 15 13 22 28 20
13 -1 21 4 21 13 0 8 4 18 10 22 5 4 6 10 2 15 -9 9 -28 -17 -21 -29 3 -4 1
-8 -5 -8 -15 0 -24 44 -16 72 8 23 8 23 -14 -2 -14 -16 -19 -19 -15 -7 3 9 3
25 -1 35 -4 9 -7 31 -6 48 3 38 -25 42 -51 8 -11 -14 -25 -20 -37 -17 -17 4
-18 0 -14 -40 5 -39 2 -46 -22 -65 -34 -27 -42 -27 -48 -4 -2 11 -13 -4 -32
-43 -30 -63 -48 -56 -21 9 15 35 13 66 -4 66 -5 0 -12 -4 -15 -10 -3 -5 -15
-15 -27 -21 -13 -7 -18 -7 -14 -1 3 6 2 13 -3 16 -5 3 -7 15 -4 26 6 24 -9 26
-31 4 -15 -14 -16 -14 -16 3 0 11 6 25 12 32 11 11 9 13 -10 8 -21 -5 -22 -3
-16 31 4 21 11 47 15 60 12 30 11 42 -1 42 -5 0 -10 -7 -10 -15 0 -9 -6 -18
-14 -21 -8 -3 -17 -17 -20 -30 -4 -16 -19 -31 -39 -39 -18 -8 -26 -14 -19 -15
20 0 13 -37 -11 -53 -18 -12 -24 -12 -35 -1 -6 7 -12 20 -12 29 0 8 -9 15 -20
15 -13 0 -20 7 -20 20 0 11 -4 20 -9 20 -12 0 -51 -54 -51 -72 -1 -7 -15 -40
-33 -73 -22 -40 -39 -61 -53 -63 -18 -3 -21 1 -17 22 4 19 1 26 -10 26 -11 0
-18 13 -23 36 -5 26 -9 32 -16 22 -7 -10 -11 -10 -15 0 -2 6 -9 10 -14 6 -13
-7 -11 1 6 44 11 24 12 38 5 40 -5 2 -7 9 -3 15 4 6 -6 2 -21 -11 -32 -25 -48
-28 -44 -9 1 6 -2 22 -6 35 -5 15 -2 31 7 46 9 13 18 39 22 58 7 37 -4 53 -39
60 -17 3 -21 -7 -31 -68 -16 -94 -35 -143 -57 -150 -19 -6 -25 -24 -8 -24 30
0 2 -47 -70 -118 -44 -44 -80 -85 -80 -91 0 -7 -24 -34 -53 -61 -29 -27 -66
-68 -82 -92 -16 -24 -46 -63 -66 -88 -21 -25 -61 -84 -90 -130 -28 -47 -66
-105 -84 -130 -18 -25 -43 -74 -55 -110 -13 -36 -29 -74 -36 -85 -8 -11 -14
-34 -14 -51 0 -18 -6 -34 -14 -37 -8 -3 -14 -20 -15 -39 0 -18 -1 -40 -2 -48
-2 -39 10 -168 19 -190 6 -16 17 -25 33 -25 18 0 26 -8 34 -35 10 -35 46 -80
65 -80 5 0 14 -8 19 -18 9 -15 10 -14 11 6 0 19 5 23 23 20 13 -1 32 5 41 15
28 27 49 20 70 -23 11 -22 30 -47 43 -55 14 -10 23 -25 23 -41 0 -36 46 -77
110 -98 30 -10 59 -23 65 -30 5 -7 32 -19 59 -26 28 -8 72 -24 98 -37 26 -13
51 -23 55 -23 16 0 100 -46 117 -63 10 -10 32 -17 54 -17 21 0 47 -6 58 -14
11 -8 48 -18 82 -22 33 -3 85 -14 114 -24 50 -16 53 -19 56 -53 4 -46 14 -47
31 -2 14 39 26 44 41 16 7 -14 5 -33 -7 -70 -17 -54 -13 -72 12 -51 16 14 21
35 5 25 -14 -9 0 26 23 55 l20 25 -7 -27 c-3 -16 -2 -28 2 -28 18 0 72 32 80
47 7 12 14 13 29 5 11 -6 30 -8 42 -5 12 3 33 0 46 -7 20 -11 26 -10 40 4 21
21 26 20 18 -1 -6 -16 -5 -16 10 -5 20 17 40 6 34 -19 -4 -16 -1 -15 26 7 27
23 32 24 42 10 8 -10 15 -12 21 -6 7 7 18 3 33 -11 19 -18 25 -19 32 -8 6 11
9 10 14 -3 4 -9 13 -14 21 -11 10 4 14 -4 14 -28 l1 -34 15 28 c8 15 19 27 24
27 11 0 0 -111 -13 -128 -5 -7 -7 -15 -3 -19 8 -8 8 -8 44 70 18 37 35 67 38
67 7 0 -1 -64 -10 -79 -4 -6 -3 -11 2 -11 4 0 14 16 22 35 19 49 45 47 37 -3
l-6 -37 22 30 c12 16 27 38 32 50 15 29 59 27 63 -3 2 -12 8 -22 13 -22 16 0
9 -43 -15 -95 -13 -27 -21 -58 -18 -68 4 -17 6 -17 14 -3 5 9 18 16 29 16 13
0 25 11 34 33 7 17 29 50 49 72 l35 40 1 -41 c0 -26 -7 -50 -19 -65 -18 -24
-18 -24 4 -41 22 -17 23 -16 28 2 3 13 0 20 -9 20 -8 0 -14 5 -14 10 0 6 6 10
13 10 8 0 24 11 37 25 13 14 29 25 37 25 7 0 13 7 13 15 0 14 3 13 25 -1 24
-16 25 -16 25 10 0 14 5 26 10 26 13 0 13 -10 -5 -60 -21 -58 -19 -61 10 -17
14 20 30 38 35 38 6 1 14 2 18 3 5 0 23 16 41 34 19 18 35 31 38 28 7 -6 -16
-84 -27 -91 -19 -12 -10 -22 15 -17 14 2 34 15 44 29 12 14 22 19 26 13 3 -5
1 -10 -4 -10 -6 0 -11 -7 -11 -17 0 -9 12 1 30 25 37 52 73 57 88 14 7 -21 16
-27 34 -27 13 1 29 4 35 8 6 4 13 -5 17 -23 7 -38 24 -39 32 -2 16 75 18 77
67 80 26 2 47 7 47 13 0 15 17 10 24 -7 4 -9 1 -23 -5 -30 -6 -8 -8 -26 -4
-44 5 -23 2 -37 -11 -51 -9 -10 -14 -22 -11 -26 4 -4 14 2 21 13 19 25 31 12
16 -18 l-12 -23 21 23 c12 12 34 22 48 22 37 0 131 98 167 173 14 31 33 57 40
57 19 0 -48 -135 -83 -168 -19 -17 -26 -34 -27 -63 0 -21 1 -39 3 -39 3 0 24
12 48 26 24 14 52 24 62 22 18 -3 63 34 63 51 0 5 7 11 15 15 10 4 15 -1 15
-15 0 -11 4 -18 9 -15 5 4 12 0 14 -6 4 -9 6 -8 6 2 1 20 41 55 42 37 1 -6 3
-26 5 -44 2 -19 -2 -38 -10 -46 -8 -8 -21 -30 -30 -51 -8 -20 -20 -36 -26 -36
-15 0 -8 -42 8 -48 6 -2 12 3 12 12 0 9 7 16 16 16 14 0 16 -8 10 -54 -3 -30
-9 -63 -12 -73 -4 -11 4 -7 20 12 14 17 24 23 21 15 -3 -8 -1 -28 3 -44 l8
-30 13 32 c7 18 17 32 21 32 4 0 18 19 31 43 12 23 28 53 35 67 8 14 14 33 14
42 0 28 11 47 25 42 7 -3 15 4 18 15 3 12 11 21 19 21 7 0 19 12 26 28 50 108
72 123 62 45 -3 -27 -2 -58 4 -70 9 -23 9 -23 43 12 36 37 49 42 56 23 3 -10
8 -9 18 3 19 22 66 33 75 17 6 -9 10 -5 14 11 3 14 12 27 19 29 10 3 11 -2 6
-19 -17 -59 -17 -59 -1 -53 12 5 16 0 16 -17 1 -23 2 -23 14 -6 10 13 15 15
19 5 5 -16 12 -10 21 20 6 17 3 22 -10 22 -10 0 -15 2 -12 5 3 3 24 2 47 -4
24 -5 41 -5 41 0 0 5 7 9 16 9 16 0 16 -1 0 -88 -3 -12 -8 -27 -11 -32 -3 -6
1 -7 9 -4 12 5 16 0 16 -19 0 -14 7 -28 16 -31 9 -4 18 -5 18 -4 45 85 56 109
56 127 0 14 6 21 20 21 22 0 21 -14 -1 -84 -11 -35 -11 -36 0 -36 4 0 16 21
26 48 28 74 36 74 30 -1 -4 -56 -3 -67 10 -67 21 0 19 -29 -5 -68 -11 -18 -20
-41 -20 -51 0 -25 36 -65 51 -55 9 5 10 0 5 -20 -11 -45 3 -29 34 37 16 35 39
72 50 82 12 11 28 34 35 52 17 40 32 42 41 7 l7 -27 13 24 c7 13 13 34 14 47
0 27 5 28 32 2 20 -18 23 -19 40 -3 10 9 18 13 18 8 0 -4 7 -2 15 5 9 7 18 11
20 8 9 -8 -37 -118 -46 -112 -5 3 -6 -2 -3 -10 10 -26 58 16 74 65 13 38 51
71 66 57 10 -10 2 -98 -9 -98 -5 0 -5 -5 -2 -10 10 -16 26 -1 21 18 -3 10 1
28 9 42 l15 25 -6 -30 c-5 -26 -3 -30 19 -31 17 -1 28 6 35 22 9 19 8 22 -3
17 -19 -7 -18 5 0 37 8 14 14 19 15 11 0 -11 4 -11 18 2 28 26 35 21 28 -20
l-7 -38 18 28 c10 15 26 27 36 27 13 0 17 5 13 15 -4 10 1 15 14 15 13 0 20
-7 20 -18 0 -19 -28 -83 -40 -92 -4 -3 -4 -14 0 -24 5 -16 9 -14 23 16 22 46
39 60 74 56 20 -2 30 -10 35 -28 4 -13 4 -27 0 -30 -4 -3 -8 -13 -8 -22 -1
-10 -5 -30 -9 -45 l-6 -28 20 22 c12 12 21 25 21 29 0 8 63 137 70 144 3 3 20
24 39 47 33 43 61 56 61 28 0 -8 -9 -24 -19 -34 -22 -22 -42 -119 -22 -107 6
4 21 29 33 54 12 26 27 54 34 63 8 8 17 40 21 70 7 44 12 54 28 54 14 0 29 18
52 65 18 36 32 71 33 78 0 6 5 12 10 12 6 0 10 9 10 20 0 15 6 19 25 18 25 -2
36 -30 16 -42 -4 -3 -12 -20 -16 -38 -4 -18 -9 -27 -12 -21 -6 17 -53 -13 -53
-34 0 -11 4 -11 18 3 16 17 17 17 20 -2 1 -11 -9 -50 -23 -88 -20 -54 -23 -67
-10 -63 8 4 15 5 15 4 0 -22 -32 -143 -39 -150 -17 -17 -13 -57 4 -57 18 0 18
-2 4 -34 -7 -14 -15 -23 -20 -21 -4 3 -10 1 -14 -5 -3 -5 3 -10 14 -10 12 0
21 -5 21 -10 0 -6 12 -2 27 7 15 10 30 18 33 18 3 0 4 5 2 12 -4 17 37 100 53
107 7 2 16 20 20 38 4 18 14 42 21 54 8 11 12 23 9 26 -3 3 1 11 9 17 16 13
40 6 31 -9 -3 -5 2 -15 11 -24 19 -20 10 -36 -20 -36 -13 0 -27 -9 -34 -22
-24 -49 -40 -98 -34 -102 13 -8 42 21 57 58 9 22 27 41 43 48 15 7 35 18 45
27 9 8 20 11 23 8 10 -9 -36 -77 -52 -77 -16 0 -44 -50 -44 -80 0 -11 4 -20
10 -20 6 0 6 -9 0 -26 -6 -14 -10 -31 -10 -37 1 -18 40 33 40 52 0 9 11 33 25
53 14 20 25 43 25 51 0 15 55 69 87 86 13 6 32 30 43 53 24 50 24 49 5 42 -8
-4 -15 -3 -15 1 0 12 28 35 44 35 8 0 24 12 37 28 l21 27 -7 -25 c-6 -24 -6
-24 7 -5 7 11 18 29 24 40 16 29 34 30 34 1 0 -30 16 -35 25 -7 3 10 19 33 35
50 17 17 30 35 30 41 0 5 6 10 14 10 20 0 31 -76 17 -112 -6 -17 -7 -28 -1
-28 5 0 12 11 16 25 3 14 10 25 15 25 5 0 9 4 9 9 0 11 78 129 103 156 10 11
25 33 33 48 8 15 19 25 24 22 6 -3 15 5 22 19 14 31 28 34 28 5 0 -11 -18 -42
-40 -67 -35 -42 -39 -53 -37 -95 l2 -48 20 26 c12 14 25 25 31 25 5 0 20 20
34 45 14 25 31 45 40 45 34 0 61 -13 56 -26 -3 -8 1 -14 9 -14 17 0 67 73 54
78 -15 6 -10 26 16 57 19 23 24 26 25 13 0 -10 -4 -18 -10 -18 -5 0 -7 -7 -4
-15 5 -12 10 -10 26 10 26 33 68 34 68 3 0 -18 2 -20 9 -9 5 8 7 21 3 29 -4
11 -1 14 11 9 11 -4 17 -1 17 8 0 8 4 15 9 15 5 0 12 11 15 25 4 14 13 25 21
25 16 0 21 15 8 23 -5 2 -3 2 4 1 6 -2 14 2 17 9 2 7 5 4 5 -6 1 -10 -6 -34
-14 -54 -8 -19 -15 -44 -15 -55 0 -10 -7 -33 -15 -51 l-16 -32 20 23 c11 12
21 28 24 35 10 27 16 -2 7 -34 l-9 -34 24 27 c27 32 40 37 26 10 -14 -26 3
-51 18 -26 9 16 12 17 20 5 5 -8 7 -20 4 -27 -6 -16 -33 -27 -33 -14 0 6 -5
10 -11 10 -6 0 -8 -9 -4 -20 5 -15 2 -20 -12 -20 -17 -1 -16 -2 2 -16 20 -15
20 -15 -8 -65 -15 -28 -25 -54 -22 -60 4 -5 1 -9 -4 -9 -6 0 -11 -5 -11 -12 0
-6 3 -8 7 -5 3 4 12 -1 20 -11 12 -14 14 -14 10 -1 -6 19 1 30 28 45 23 13 46
54 38 67 -3 5 -9 4 -13 -3 -14 -22 -21 7 -9 34 15 32 33 34 24 4 -7 -22 -7
-23 8 -3 9 11 28 20 47 21 31 2 32 1 25 -34 -3 -19 -14 -46 -23 -61 -10 -14
-12 -22 -4 -17 6 4 19 21 28 39 16 30 52 66 67 67 4 0 7 -13 7 -29 0 -17 6
-31 16 -35 15 -6 15 -8 -1 -26 -10 -11 -15 -23 -11 -28 7 -7 26 13 53 54 8 13
14 16 20 7 5 -6 9 9 9 37 2 46 26 100 46 100 6 0 7 -12 4 -27 -6 -26 -5 -26
16 7 28 45 27 44 32 39 3 -2 -4 -29 -14 -59 -25 -70 -26 -108 -3 -66 8 16 16
34 17 41 4 25 55 75 70 69 9 -3 16 -11 16 -17 0 -7 4 -7 12 1 7 7 15 12 20 12
9 0 4 -67 -8 -95 -8 -19 -8 -19 13 0 12 11 26 33 32 48 6 16 18 27 29 27 26 0
42 20 42 53 0 25 3 27 23 21 32 -10 32 -10 17 -62 -7 -26 -15 -62 -18 -79 -2
-18 -8 -33 -13 -33 -5 0 -9 -8 -9 -17 0 -13 5 -11 18 10 9 15 22 27 28 27 6 0
22 20 35 45 13 25 27 45 30 45 4 0 10 15 13 34 7 34 36 59 36 30 0 -8 5 -12
10 -9 6 3 10 -2 10 -12 0 -15 2 -16 11 -3 8 11 9 6 5 -20 -5 -29 -4 -32 5 -16
7 10 18 26 25 35 8 9 20 25 28 36 20 26 20 5 2 -40 -8 -19 -11 -37 -6 -40 4
-3 11 1 13 7 3 7 6 0 6 -15 1 -16 5 -26 11 -22 6 4 6 15 0 31 -11 28 -6 44 13
44 14 1 57 88 57 116 0 11 9 28 21 37 11 10 25 31 30 46 10 29 49 50 49 28 0
-7 8 4 17 23 9 19 17 36 17 36 1 1 11 5 24 8 18 6 22 4 22 -16 0 -28 -26 -68
-44 -68 -8 0 -17 -7 -20 -16 -9 -24 -7 -31 4 -14 7 10 10 11 10 2 0 -7 -7 -15
-15 -19 -9 -3 -15 -13 -14 -22 2 -20 -28 -91 -40 -91 -11 0 -31 -46 -31 -70 0
-13 7 -20 20 -20 13 0 20 7 20 20 0 11 9 28 20 37 11 10 20 28 20 40 0 13 5
23 10 23 6 0 16 11 22 25 8 19 17 24 32 20 12 -3 16 -2 9 1 -15 7 -5 76 14 87
7 4 13 15 13 22 0 8 7 15 16 15 10 0 14 -5 10 -16 -3 -9 -2 -12 5 -8 6 3 9 15
6 25 -3 11 0 19 7 19 7 0 19 12 26 26 12 22 16 23 25 10 10 -12 14 -9 24 20 9
25 17 34 28 30 10 -4 13 -2 10 8 -3 8 3 22 14 32 11 10 28 34 37 53 22 47 29
17 8 -33 -9 -21 -11 -38 -5 -41 5 -4 9 -2 9 3 0 6 7 12 15 16 12 4 14 0 9 -22
-4 -15 -11 -31 -15 -36 -5 -6 -9 -21 -9 -35 0 -24 1 -24 14 -6 8 11 11 26 8
34 -4 9 -1 12 7 7 8 -5 14 0 18 13 4 16 9 19 18 11 9 -7 17 1 31 30 24 51 54
55 55 8 l1 -33 10 28 c5 15 13 27 18 27 5 0 7 12 5 28 -3 24 8 41 26 42 4 0
10 -15 13 -32 l7 -33 19 35 c25 46 25 53 -5 48 -26 -5 -29 -1 -19 26 4 11 13
14 30 10 18 -5 24 -2 24 11 0 10 8 25 19 34 10 9 21 37 25 64 4 26 11 47 17
47 5 0 9 9 9 21 0 11 -4 17 -10 14 -6 -4 -10 10 -10 34 0 31 3 39 14 35 11 -4
13 0 9 15 -3 11 3 44 13 73 11 33 19 46 22 35 6 -29 45 -17 49 15 3 23 0 26
-13 21 -15 -6 -16 0 -10 58 4 35 7 70 8 77 1 9 5 9 12 2 13 -13 46 -13 46 0 0
17 -5 25 -12 23 -5 -2 -8 5 -9 15 0 15 -2 14 -10 -3 -6 -15 -7 -11 -3 15 4 19
10 37 15 38 5 2 6 8 3 13 -3 6 0 16 6 24 10 11 10 15 1 15 -23 0 -1 18 29 25
32 7 42 24 13 21 -13 -1 -18 6 -17 27 1 21 -3 27 -13 23 -8 -4 -17 -6 -19 -6
-2 0 -4 -7 -4 -15 0 -8 -5 -15 -11 -15 -5 0 -8 -4 -4 -9 3 -5 1 -20 -4 -33 -5
-13 -12 -36 -16 -52 -5 -22 -9 -26 -18 -17 -8 8 -9 16 -1 29 6 9 10 35 8 57
-2 31 3 44 19 57 12 10 16 18 10 18 -7 0 -13 8 -13 19 0 29 49 34 71 7 10 -11
18 -16 19 -10 0 7 11 15 24 18 13 3 26 15 29 26 5 20 27 28 27 10 0 -6 11 -8
25 -4 28 7 29 5 15 -30 -7 -21 -6 -26 10 -31 17 -5 19 -14 16 -67 -2 -48 -7
-62 -19 -64 -11 -1 -17 5 -17 17 0 43 -31 6 -44 -51 -13 -60 -62 -236 -68
-246 -4 -6 -12 -28 -17 -50 -5 -21 -15 -57 -21 -79 -24 -84 -24 -86 -5 -78 15
5 17 2 12 -18 -5 -20 -3 -24 18 -24 14 0 25 5 25 10 0 6 3 21 7 35 l6 25 -20
-24 -20 -25 -8 22 c-7 23 13 122 25 122 4 0 10 21 13 48 10 81 36 154 58 159
10 3 16 10 13 15 -8 13 -6 106 2 120 8 12 64 -47 64 -67 0 -7 6 -17 13 -23 9
-8 15 -4 23 13 9 19 9 22 -2 18 -11 -4 -13 10 -11 66 2 39 8 76 15 83 7 7 12
22 12 33 0 12 3 25 6 28 4 3 7 51 8 106 1 63 6 104 15 114 7 9 11 27 9 41 -5
42 -28 16 -37 -43 -10 -64 -17 -72 -33 -35 -15 33 -44 43 -51 17 -2 -10 -2 9
1 41 4 41 2 57 -6 52 -6 -3 -13 2 -15 11 -4 14 -5 13 -6 -4 0 -12 -5 -24 -9
-27 -5 -3 -14 -30 -21 -61 -7 -30 -17 -55 -22 -55 -21 0 -24 2 -21 17 6 26 -8
84 -18 78 -18 -11 -22 62 -6 94 9 17 20 31 24 31 4 0 8 26 10 57 2 50 39 144
64 163 3 3 1 13 -7 23 -11 16 -13 14 -19 -14 -4 -20 -10 -28 -18 -23 -8 5 -9
2 -5 -9 3 -9 1 -19 -5 -23 -7 -4 -8 -3 -4 4 4 7 3 12 -1 12 -13 0 -37 -42 -48
-85 -7 -25 -19 -44 -32 -50 -14 -6 -24 -22 -28 -45 -4 -19 -15 -49 -26 -67
-14 -23 -20 -50 -20 -100 -1 -68 -16 -133 -31 -133 -4 0 -8 11 -8 24 0 19 -4
24 -20 21 -17 -3 -18 0 -13 28 3 18 12 44 19 59 8 15 14 33 14 41 0 8 9 24 20
37 11 13 20 30 20 39 0 9 7 36 16 60 8 24 13 46 10 48 -7 7 -65 -57 -72 -79
-3 -11 -8 -17 -12 -14 -3 3 -13 -8 -23 -24 -25 -40 -39 -38 -39 5 0 24 5 35
15 35 9 0 12 6 8 16 -4 11 1 22 13 31 19 14 19 15 -1 13 -33 -4 -38 -1 -25 15
9 10 9 15 1 15 -6 0 -11 7 -11 16 0 8 -4 12 -10 9 -5 -3 -10 -2 -10 4 0 5 -3
16 -6 25 -4 9 -1 16 6 16 16 0 39 30 39 50 0 8 -6 24 -14 34 -14 18 -15 18
-34 -5 l-20 -24 -8 23 c-8 22 -11 21 -42 -28 -33 -51 -54 -60 -59 -24 -5 40
-26 94 -35 94 -5 0 -11 -9 -14 -20 -3 -11 -11 -20 -18 -20 -7 0 -20 -10 -29
-22 -48 -67 -47 -67 -40 -23 7 38 6 39 -12 24 -10 -8 -27 -14 -38 -11 -15 3
-17 10 -13 37 3 19 1 35 -5 37 -6 2 -1 19 11 41 11 20 16 37 11 37 -6 0 -10
-3 -10 -7 -1 -5 -16 -26 -35 -48 -26 -31 -33 -35 -29 -17 4 13 2 22 -5 22 -6
0 -11 -4 -11 -10 0 -5 -4 -10 -10 -10 -5 0 -10 11 -10 25 0 27 -9 32 -28 13
-10 -10 -18 -6 -40 17 -28 32 -33 44 -36 87 -1 26 -16 53 -16 29 0 -6 -16 -27
-35 -45 -26 -26 -30 -33 -14 -29 18 5 19 2 16 -31 -3 -21 -8 -41 -13 -46 -14
-12 -55 -23 -53 -13 4 24 -4 25 -21 3 l-20 -25 -1 55 -1 55 -11 -52 c-13 -54
-43 -103 -64 -103 -19 0 -16 28 6 64 16 25 18 38 10 71 -5 22 -11 52 -14 68
-6 30 -41 39 -51 13 -4 -11 -12 -13 -28 -6 -20 7 -31 0 -79 -46 -59 -58 -93
-71 -82 -31 4 12 3 17 -2 11 -4 -7 -28 -11 -53 -10 -35 1 -46 5 -48 19 -4 20
-32 57 -43 57 -4 0 -10 -14 -14 -31 -8 -36 -60 -72 -90 -62 -24 8 -32 7 -70
-1 l-30 -7 29 24 c30 26 29 48 -3 40 -10 -3 -28 0 -39 6 -15 8 -35 8 -72 -1
-41 -9 -63 -23 -107 -65 -57 -55 -69 -63 -59 -38 8 21 -66 -27 -79 -51 -12
-22 -49 -67 -85 -100 -27 -26 -38 -17 -20 16 9 17 8 25 -5 40 -12 14 -15 29
-9 69 5 38 3 51 -6 51 -7 0 -19 8 -27 18 -13 15 -14 14 -9 -17 9 -52 -4 -113
-23 -109 -17 4 -44 -19 -54 -46 -4 -9 -11 -15 -16 -11 -6 3 -14 -2 -19 -11
-12 -22 -49 -10 -58 19 -4 11 -13 27 -20 35 -8 7 -18 21 -23 30 -5 9 -11 15
-13 12 -71 -89 -82 -100 -105 -100 -25 0 -26 0 -18 63 13 103 8 122 -23 94
-20 -19 -37 -23 -27 -7 9 15 -11 12 -24 -4 -16 -19 -49 -27 -58 -13 -4 6 -6
27 -4 47 2 30 0 33 -11 19 -7 -10 -23 -20 -35 -24 -19 -5 -25 1 -43 36 l-22
41 -19 -21 c-11 -12 -24 -21 -29 -21 -5 0 -18 -10 -30 -22 -19 -21 -20 -21
-20 -2 -1 18 -2 18 -19 -3 -11 -13 -22 -23 -26 -23 -8 0 -2 34 9 60 5 13 -1
16 -29 15 -19 -1 -35 3 -35 8 0 5 -15 6 -37 2 -75 -15 -98 -12 -98 12 -1 34
-13 38 -33 13 -10 -13 -27 -24 -38 -25 -10 0 -34 -15 -53 -32 l-34 -31 -33 35
c-27 28 -34 44 -34 77 -1 35 -28 97 -31 70 -2 -12 -6 -53 -8 -81 -1 -15 -10
-23 -31 -28 -20 -4 -30 -13 -30 -25 0 -17 -39 -50 -58 -50 -5 0 -17 18 -27 40
-23 50 -45 58 -85 28 -39 -29 -64 -16 -68 35 -4 40 -26 55 -51 33 -28 -25 -70
-30 -91 -11 -11 10 -20 25 -20 34 -1 9 -23 35 -49 58 l-49 43 -50 -50 c-28
-28 -53 -50 -55 -50 -3 0 -8 11 -11 25 -6 23 -10 25 -42 19 -28 -5 -40 -2 -58
15 -18 17 -31 20 -56 16 -18 -3 -36 -8 -40 -10 -14 -9 -42 33 -35 53 3 11 2
23 -2 25 -10 6 -57 -34 -61 -53 -4 -18 -42 -65 -42 -52 0 6 -6 9 -14 6 -8 -3
-24 -1 -35 6 -17 9 -21 20 -21 63 0 57 -12 52 -30 -13 -5 -19 -14 -41 -18 -48
-10 -16 -42 -5 -42 14 0 8 -4 14 -10 14 -5 0 -10 5 -10 11 0 5 5 7 12 3 7 -4
8 -3 4 4 -14 24 -36 11 -55 -33 -26 -60 -56 -62 -71 -5 -12 45 -26 49 -84 25
-33 -14 -36 -14 -36 2 0 9 11 28 24 42 30 32 47 87 24 78 -9 -3 -20 -1 -26 5
-7 7 -12 3 -17 -11 -4 -14 -15 -21 -31 -21 -13 0 -49 -14 -79 -31 -64 -36 -89
-30 -99 25 -8 41 -21 53 -42 35 -12 -10 -16 -9 -21 9 -7 27 -22 27 -45 1z
m-1050 -352 c2 -11 -3 -17 -16 -17 -24 0 -32 8 -25 26 7 20 37 13 41 -9z
m3977 -167 c3 -5 1 -10 -4 -10 -6 0 -11 5 -11 10 0 6 2 10 4 10 3 0 8 -4 11
-10z m1746 -123 c-16 -16 -26 0 -10 19 9 11 15 12 17 4 2 -6 -1 -17 -7 -23z
m49 -42 c0 -13 -26 -63 -44 -83 -11 -12 -20 -35 -21 -50 0 -18 -8 -30 -24 -39
-14 -6 -30 -22 -37 -35 -11 -19 -13 -20 -14 -5 0 11 -5 15 -11 11 -7 -4 -10
-3 -8 3 2 5 15 39 28 76 25 67 25 67 57 61 30 -6 34 -3 40 22 4 16 9 32 11 37
5 8 23 10 23 2z m177 -17 c-3 -8 -6 -5 -6 6 -1 11 2 17 5 13 3 -3 4 -12 1 -19z
m-129 0 c13 -13 16 -39 5 -37 -5 1 -10 0 -13 -1 -31 -12 -37 -7 -27 21 13 32
17 35 35 17z m218 -40 c-2 -34 -20 -48 -30 -23 -6 15 12 55 25 55 4 0 6 -14 5
-32z m-256 -48 c0 -5 -5 -10 -11 -10 -5 0 -7 5 -4 10 3 6 8 10 11 10 2 0 4 -4
4 -10z m88 -98 c2 -12 -1 -22 -7 -22 -5 0 -8 -11 -5 -24 2 -14 -1 -28 -7 -32
-8 -4 -9 7 -5 41 6 44 5 46 -14 40 -11 -3 -20 -2 -20 3 0 29 54 23 58 -6z
m-74 -29 c-3 -21 -15 -47 -25 -58 -19 -19 -19 -19 -19 2 0 12 5 25 10 28 6 3
10 16 10 29 0 24 7 36 22 36 5 0 6 -17 2 -37z m256 2 c0 -19 -9 -52 -20 -72
-23 -43 -25 -33 -8 49 13 65 28 77 28 23z m131 -16 c-5 -13 -10 -19 -10 -12
-1 15 10 45 15 40 3 -2 0 -15 -5 -28z m-569 -51 c-8 -8 -9 -4 -5 13 4 13 8 18
11 10 2 -7 -1 -18 -6 -23z m288 8 c0 -7 7 -19 15 -26 14 -12 12 -48 -4 -75 -3
-5 -6 -14 -7 -20 0 -5 -2 -16 -2 -23 -2 -9 -7 -10 -21 -2 -22 11 -26 8 -35
-37 -5 -22 -2 -39 9 -57 14 -21 15 -28 3 -43 -7 -10 -22 -18 -34 -19 -18 0
-20 4 -14 35 4 20 12 54 18 76 6 22 16 68 23 103 6 34 16 62 20 62 5 0 9 9 9
20 0 11 5 20 10 20 6 0 10 -6 10 -14z m-80 -15 c0 -5 -23 -33 -51 -62 -42 -44
-50 -49 -45 -29 3 14 6 32 6 40 0 8 5 22 10 30 9 13 11 13 20 0 9 -13 13 -12
28 7 18 23 32 29 32 14z m11 -34 c-8 -8 -11 -7 -11 4 0 20 13 34 18 19 3 -7
-1 -17 -7 -23z m-107 -124 c-7 -41 -44 -136 -51 -130 -5 5 16 105 29 140 15
40 30 33 22 -10z m157 -40 c-10 -17 -10 -16 -11 3 0 23 13 41 18 25 2 -6 -1
-18 -7 -28z m-3712 -54 c30 -37 32 -45 30 -107 -1 -43 3 -77 12 -95 l15 -28
26 40 c17 25 22 44 17 52 -5 8 -9 39 -9 70 0 48 4 59 28 82 33 32 43 33 66 8
14 -15 17 -37 15 -126 -1 -104 -3 -110 -46 -202 l-44 -94 -37 3 c-36 3 -38 5
-88 108 l-52 105 -1 108 c-1 59 1 112 4 117 9 15 31 1 64 -41z m-1964 1 l39
-40 41 40 c44 43 77 51 107 23 29 -26 21 -54 -27 -103 l-45 -46 45 -37 45 -38
0 -95 c0 -115 -11 -126 -71 -68 -35 34 -39 43 -39 86 0 47 -1 48 -30 48 -30 0
-30 0 -30 -56 0 -84 -49 -141 -88 -102 -18 18 -17 428 1 428 7 0 31 -18 52
-40z m317 3 c36 -35 38 -40 38 -100 0 -35 -6 -72 -12 -83 -10 -15 -10 -22 0
-32 6 -6 12 -29 12 -50 l0 -38 44 0 c39 0 48 -5 80 -41 20 -23 36 -46 36 -50
0 -5 -48 -9 -107 -9 -159 0 -153 -9 -153 242 0 148 3 198 12 198 7 0 29 -17
50 -37z m498 15 c18 -23 18 -24 -8 -50 -22 -24 -33 -28 -84 -28 l-58 0 0 -35
c0 -35 0 -35 43 -35 35 0 51 -6 80 -32 37 -33 37 -34 39 -115 3 -113 -7 -123
-116 -123 -77 0 -81 1 -113 32 l-33 32 0 170 c0 214 -5 206 132 206 91 0 101
-2 118 -22z m415 2 c18 -20 18 -21 -10 -50 -25 -26 -36 -30 -82 -30 l-53 0 0
-50 c0 -28 -6 -59 -12 -70 -10 -15 -10 -22 0 -32 6 -6 12 -29 12 -50 l0 -38
43 0 c37 0 48 -6 81 -39 21 -22 35 -44 32 -50 -4 -7 -43 -11 -97 -11 -87 0
-91 1 -124 32 l-35 31 0 166 c0 216 -3 211 129 211 85 0 100 -3 116 -20z m290
-17 l34 -37 0 -160 c0 -150 -1 -162 -21 -183 -19 -20 -31 -23 -102 -23 -77 0
-81 1 -113 32 l-33 32 0 170 c0 210 -2 206 117 206 83 0 83 0 118 -37z m145 7
c8 0 31 -17 52 -37 l38 -37 0 30 c0 20 9 38 26 53 l26 23 29 -28 28 -27 0
-181 c0 -219 -6 -234 -74 -175 -34 30 -35 34 -35 98 0 37 5 72 11 78 7 7 -1
20 -28 42 l-38 32 -3 -28 c-2 -15 -9 -34 -14 -41 -8 -9 -8 -16 0 -24 19 -19
15 -148 -5 -170 -21 -23 -32 -23 -60 4 -22 21 -23 26 -23 208 0 196 6 226 40
195 9 -8 23 -15 30 -15z m792 13 c23 -21 23 -32 -4 -60 -17 -18 -32 -23 -75
-23 l-53 0 0 -35 c0 -34 1 -35 37 -35 28 0 45 -8 70 -32 31 -30 32 -33 16 -50
-12 -13 -31 -18 -70 -18 l-53 0 0 -35 c0 -34 1 -35 37 -35 29 0 45 -8 75 -37
59 -58 53 -63 -65 -63 -95 0 -104 2 -129 25 l-28 25 1 182 c0 117 3 186 11
195 17 21 206 18 230 -4z m313 -20 c34 -35 35 -38 35 -114 0 -74 -1 -79 -29
-98 -16 -12 -43 -21 -61 -21 l-32 0 61 -60 c42 -42 61 -67 61 -85 0 -22 -4
-25 -34 -25 -27 0 -42 10 -85 54 l-51 55 0 -33 c0 -22 -8 -40 -25 -56 -21 -20
-28 -22 -50 -12 l-25 12 0 203 c0 112 3 207 7 210 3 4 48 7 99 7 l93 0 36 -37z
m324 8 l20 -28 -22 -22 c-13 -11 -33 -21 -45 -21 -24 0 -25 -8 -22 -226 1
-117 -10 -131 -70 -84 -40 32 -40 32 -40 103 0 49 5 76 15 87 14 15 14 18 0
30 -8 7 -15 28 -15 46 0 27 -9 42 -44 75 -67 61 -57 69 84 69 l119 0 20 -29z
m303 12 c23 -21 23 -32 -4 -60 -17 -18 -32 -23 -75 -23 l-53 0 0 -35 c0 -34 1
-35 40 -35 33 0 46 -6 69 -32 27 -30 28 -34 14 -50 -12 -13 -31 -18 -70 -18
l-53 0 0 -35 c0 -34 1 -35 37 -35 29 0 45 -8 75 -37 59 -58 53 -63 -65 -63
-100 0 -104 1 -130 28 l-26 28 0 177 c0 97 2 184 5 192 9 23 210 22 236 -2z
m303 -20 c33 -36 34 -41 35 -115 0 -73 -1 -78 -28 -96 -15 -11 -40 -22 -54
-24 -26 -3 -26 -4 28 -63 65 -71 72 -105 22 -105 -26 0 -44 11 -85 52 l-53 52
0 -29 c0 -52 -58 -93 -88 -63 -13 13 -18 409 -5 421 3 4 48 7 100 7 l93 0 35
-37z m1855 -672 c0 -5 -7 -11 -15 -15 -9 -3 -19 -15 -24 -27 -4 -13 -11 -18
-14 -12 -4 6 3 22 16 36 23 27 37 34 37 18z m-420 -138 c-11 -17 -11 -17 -6 0
3 10 6 24 7 30 0 9 2 9 5 0 3 -7 0 -20 -6 -30z m-12 -40 c-4 -24 -23 -27 -25
-3 -1 12 4 20 13 20 9 0 14 -7 12 -17z m-68 -33 c0 -5 -6 -10 -14 -10 -8 0
-18 5 -21 10 -3 6 3 10 14 10 12 0 21 -4 21 -10z m-120 -45 c0 -8 -4 -15 -10
-15 -5 0 -10 7 -10 15 0 8 5 15 10 15 6 0 10 -7 10 -15z m-20 -43 c3 -2 -1 -7
-7 -9 -7 -3 -13 -13 -13 -23 0 -24 -11 -31 -39 -23 -17 4 -20 10 -15 27 11 35
25 47 48 40 12 -4 23 -9 26 -12z m30 -19 c-11 -17 -11 -17 -6 0 3 10 6 24 7
30 0 9 2 9 5 0 3 -7 0 -20 -6 -30z m-972 -156 c3 -16 1 -17 -17 -5 -25 16 -27
31 -4 26 10 -2 19 -11 21 -21z m184 -49 c-6 -6 -15 -8 -19 -4 -4 4 -1 11 7 16
19 12 27 3 12 -12z m78 2 c0 -5 -7 -10 -15 -10 -8 0 -15 5 -15 10 0 6 7 10 15
10 8 0 15 -4 15 -10z m-160 -41 c0 -5 -7 -9 -15 -9 -15 0 -20 12 -9 23 8 8 24
-1 24 -14z m-520 1 c0 -12 -28 -25 -36 -17 -9 9 6 27 22 27 8 0 14 -5 14 -10z
m510 -34 c0 -17 -41 -29 -54 -16 -6 6 0 13 15 19 33 13 39 13 39 -3z m-2324
-141 c18 -15 18 -15 -5 -13 -14 2 -26 9 -29 16 -5 17 10 15 34 -3z m954 -170
c0 -13 -26 -61 -37 -68 -7 -4 -13 -17 -13 -27 0 -19 -17 -36 -27 -27 -6 6 25
95 40 115 9 11 37 17 37 7z m-900 -80 c0 -9 -7 -18 -16 -22 -18 -7 -39 11 -30
26 11 17 46 13 46 -4z m-1107 -81 c-3 -9 -6 -28 -7 -42 -1 -28 -26 -44 -26
-16 0 27 23 84 31 78 5 -2 5 -12 2 -20z m2128 -7 c-10 -9 -11 -8 -5 6 3 10 9
15 12 12 3 -3 0 -11 -7 -18z m-1254 -79 c-3 -8 -6 -5 -6 6 -1 11 2 17 5 13 3
-3 4 -12 1 -19z m-37 -22 c0 -3 -4 -8 -10 -11 -5 -3 -10 -1 -10 4 0 6 5 11 10
11 6 0 10 -2 10 -4z"/>
<path d="M4740 2097 c0 -48 4 -87 8 -87 21 0 32 29 32 80 0 44 -4 61 -20 75
-20 18 -20 17 -20 -68z"/>
<path d="M4922 2168 c-5 -7 -12 -41 -14 -76 -4 -51 -1 -65 14 -79 17 -15 18
-12 18 75 0 51 -2 92 -4 92 -2 0 -8 -6 -14 -12z"/>
<path d="M4740 1986 c0 -2 19 -43 43 -92 l42 -89 3 42 c3 41 -27 119 -52 135
-11 8 -36 11 -36 4z"/>
<path d="M4912 1983 c-24 -9 -63 -102 -60 -141 4 -37 4 -36 46 49 51 105 51
107 14 92z"/>
<path d="M2780 2091 c0 -91 1 -94 19 -77 26 23 26 113 0 147 -18 24 -19 24
-19 -70z"/>
<path d="M2887 2122 c-54 -55 -72 -92 -44 -92 16 0 137 121 137 138 0 28 -39
8 -93 -46z"/>
<path d="M2806 2002 c-12 -20 24 -33 81 -30 44 2 58 7 58 18 0 12 -15 16 -67
18 -36 2 -69 -1 -72 -6z"/>
<path d="M2780 1905 c0 -77 2 -86 15 -75 10 9 15 32 15 75 0 43 -5 66 -15 75
-13 11 -15 2 -15 -75z"/>
<path d="M2952 1968 c-7 -7 -12 -37 -12 -68 0 -44 4 -61 20 -75 20 -18 20 -17
20 68 0 86 -5 98 -28 75z"/>
<path d="M3100 2090 c0 -92 0 -93 20 -75 16 14 20 31 20 75 0 44 -4 61 -20 75
-20 18 -20 17 -20 -75z"/>
<path d="M3102 1904 l3 -89 95 -2 95 -3 -24 20 c-29 25 -101 27 -139 3 -27
-17 -27 -17 -9 3 25 30 23 115 -3 139 l-21 19 3 -90z"/>
<path d="M3430 2177 c0 -26 25 -37 80 -37 47 0 60 4 80 25 l23 25 -91 0 c-69
0 -92 -3 -92 -13z"/>
<path d="M3405 2150 c-7 -11 -5 -130 2 -143 3 -4 11 -3 19 4 9 7 14 32 14 69
0 37 -5 62 -14 69 -10 8 -16 9 -21 1z"/>
<path d="M3492 2008 c-18 -18 5 -38 43 -38 33 0 46 13 38 38 -6 15 -65 16 -81
0z"/>
<path d="M3409 1984 c-5 -35 -6 -141 -2 -147 3 -4 11 -3 19 4 20 16 19 122 -1
139 -8 7 -16 9 -16 4z"/>
<path d="M3582 1978 c-16 -16 -15 -121 0 -136 23 -23 28 -12 28 62 0 76 -7 95
-28 74z"/>
<path d="M3473 1952 c10 -10 17 -35 17 -55 0 -34 2 -37 30 -37 28 0 30 3 30
35 0 27 -4 35 -18 35 -11 0 -27 9 -37 20 -10 11 -23 20 -28 20 -6 0 -3 -8 6
-18z"/>
<path d="M3442 1838 c-29 -29 -13 -38 61 -38 41 0 77 3 80 7 4 3 0 15 -10 25
-19 21 -111 26 -131 6z"/>
<path d="M3857 2183 c-4 -3 0 -15 10 -25 26 -29 103 -25 133 7 l23 25 -80 0
c-44 0 -83 -3 -86 -7z"/>
<path d="M3830 2085 c0 -75 5 -86 28 -63 16 16 16 110 0 126 -23 23 -28 12
-28 -63z"/>
<path d="M3830 1912 c0 -45 4 -82 8 -82 20 0 32 28 32 75 0 39 -5 56 -20 70
-20 18 -20 17 -20 -63z"/>
<path d="M3867 1832 c-10 -10 -14 -22 -10 -25 3 -4 42 -7 86 -7 l80 0 -23 25
c-30 32 -107 36 -133 7z"/>
<path d="M4150 2183 c0 -5 7 -16 14 -25 19 -25 107 -25 129 0 10 10 14 22 10
25 -9 10 -153 9 -153 0z"/>
<path d="M4130 2078 c0 -80 0 -81 20 -63 34 31 25 145 -12 145 -4 0 -8 -37 -8
-82z"/>
<path d="M4302 2148 c-7 -7 -12 -35 -12 -63 0 -39 5 -56 20 -70 20 -18 20 -17
20 63 0 81 -5 93 -28 70z"/>
<path d="M4210 2046 c0 -36 -5 -58 -15 -66 -14 -12 -14 -15 0 -30 8 -9 15 -33
15 -53 0 -34 2 -37 30 -37 30 0 30 1 30 54 0 36 5 58 15 66 14 12 14 15 0 30
-8 9 -15 33 -15 53 0 34 -2 37 -30 37 -30 0 -30 -1 -30 -54z"/>
<path d="M4130 1912 c0 -45 4 -82 8 -82 20 0 32 28 32 75 0 39 -5 56 -20 70
-20 18 -20 17 -20 -63z"/>
<path d="M4308 1973 c-23 -25 -25 -115 -3 -133 9 -7 18 -11 21 -8 3 3 4 40 2
83 -3 74 -4 77 -20 58z"/>
<path d="M4160 1831 c-5 -11 -10 -22 -10 -25 0 -8 145 -7 153 1 4 3 0 15 -10
25 -24 26 -118 26 -133 -1z"/>
<path d="M4440 2092 c0 -51 4 -92 8 -92 21 0 32 29 32 85 0 49 -4 66 -20 80
-20 18 -20 17 -20 -73z"/>
<path d="M4618 2163 c-24 -26 -25 -135 -3 -153 9 -7 18 -11 21 -8 2 3 4 45 2
93 -3 84 -4 86 -20 68z"/>
<path d="M4490 2127 c0 -24 66 -97 89 -97 21 0 2 41 -37 83 -42 43 -52 46 -52
14z"/>
<path d="M4440 1890 c0 -92 0 -93 20 -75 16 14 20 31 20 75 0 44 -4 61 -20 75
-20 18 -20 17 -20 -75z"/>
<path d="M4612 1968 c-7 -7 -12 -39 -12 -73 0 -49 4 -66 20 -80 20 -18 20 -17
20 73 0 91 -4 104 -28 80z"/>
<path d="M5092 2168 c12 -19 26 -24 70 -26 50 -3 57 0 72 23 l16 25 -86 0 -86
0 14 -22z"/>
<path d="M5060 2093 c0 -86 6 -102 26 -75 22 28 18 116 -6 137 -20 18 -20 17
-20 -62z"/>
<path d="M5102 2008 c-21 -21 7 -38 62 -38 57 0 83 15 65 37 -14 16 -111 17
-127 1z"/>
<path d="M5067 1984 c-4 -4 -7 -43 -7 -87 0 -79 0 -80 20 -62 15 14 20 31 20
70 0 50 -18 94 -33 79z"/>
<path d="M5095 1830 c-18 -20 -17 -20 70 -20 87 0 88 0 70 20 -14 15 -31 20
-70 20 -39 0 -56 -5 -70 -20z"/>
<path d="M5407 2165 c15 -20 26 -24 69 -25 37 0 55 5 67 18 10 10 14 22 10 25
-3 4 -42 7 -85 7 l-79 0 18 -25z"/>
<path d="M5380 2086 c0 -88 0 -89 20 -71 16 14 18 26 13 64 -3 25 -12 57 -19
71 -12 22 -13 16 -14 -64z"/>
<path d="M5552 2148 c-27 -27 -10 -138 20 -138 4 0 8 34 8 75 0 75 -5 86 -28
63z"/>
<path d="M5460 2065 c0 -32 2 -35 30 -35 28 0 30 3 30 35 0 32 -2 35 -30 35
-28 0 -30 -3 -30 -35z"/>
<path d="M5411 2007 c-20 -24 11 -38 76 -35 50 3 58 6 58 23 0 17 -8 20 -61
23 -43 2 -64 -1 -73 -11z"/>
<path d="M5380 1905 l1 -90 20 24 c16 20 19 35 15 74 -2 28 -12 57 -20 66 -15
14 -16 7 -16 -74z"/>
<path d="M5430 1942 c0 -23 110 -132 133 -132 31 0 18 25 -46 88 -64 64 -87
75 -87 44z"/>
<path d="M5677 2183 c-4 -3 0 -15 10 -25 24 -26 162 -26 186 0 10 10 14 22 10
25 -8 9 -198 9 -206 0z"/>
<path d="M5760 2082 c0 -36 5 -54 20 -67 20 -18 20 -17 20 48 0 60 -2 67 -20
67 -17 0 -20 -7 -20 -48z"/>
<path d="M5772 1968 c-7 -7 -12 -39 -12 -73 0 -56 11 -85 32 -85 4 0 8 38 8
85 0 84 -5 96 -28 73z"/>
<path d="M6032 2168 c12 -19 26 -24 70 -26 50 -3 57 0 72 23 l16 25 -86 0 -86
0 14 -22z"/>
<path d="M6000 2093 c0 -86 6 -102 26 -75 22 28 18 116 -6 137 -20 18 -20 17
-20 -62z"/>
<path d="M6043 2009 c-24 -24 -2 -39 56 -39 61 0 88 14 70 37 -14 16 -110 18
-126 2z"/>
<path d="M6007 1983 c-4 -3 -7 -42 -7 -86 0 -79 0 -80 20 -62 16 14 20 31 20
75 0 54 -17 90 -33 73z"/>
<path d="M6035 1830 c-18 -20 -17 -20 70 -20 87 0 88 0 70 20 -14 15 -31 20
-70 20 -39 0 -56 -5 -70 -20z"/>
<path d="M6337 2165 c15 -20 26 -24 69 -25 37 0 55 5 67 18 10 10 14 22 10 25
-3 4 -42 7 -85 7 l-79 0 18 -25z"/>
<path d="M6310 2079 c0 -71 2 -80 15 -69 23 19 18 150 -6 150 -5 0 -9 -37 -9
-81z"/>
<path d="M6482 2148 c-27 -27 -10 -138 20 -138 4 0 8 34 8 75 0 75 -5 86 -28
63z"/>
<path d="M6390 2065 c0 -32 2 -35 30 -35 28 0 30 3 30 35 0 32 -2 35 -30 35
-28 0 -30 -3 -30 -35z"/>
<path d="M6341 2007 c-20 -24 11 -38 76 -35 50 3 58 6 58 23 0 17 -8 20 -61
23 -43 2 -64 -1 -73 -11z"/>
<path d="M6310 1905 c0 -77 2 -86 15 -75 10 9 15 32 15 75 0 43 -5 66 -15 75
-13 11 -15 2 -15 -75z"/>
<path d="M6360 1942 c0 -23 110 -132 133 -132 31 0 18 25 -46 88 -64 64 -87
75 -87 44z"/>
<path d="M3073 3364 c-3 -10 -17 -36 -30 -56 -13 -21 -19 -38 -15 -38 12 0 66
100 58 107 -3 3 -9 -3 -13 -13z"/>
<path d="M5397 3303 c-4 -3 -7 -13 -7 -22 1 -13 3 -13 11 2 11 19 8 33 -4 20z"/>
<path d="M5165 3192 c-14 -10 -45 -59 -45 -72 0 -31 56 14 66 53 6 27 -1 34
-21 19z"/>
<path d="M8010 3105 c-8 -9 -8 -15 -2 -15 12 0 26 19 19 26 -2 2 -10 -2 -17
-11z"/>
<path d="M6656 3064 c-10 -25 1 -29 14 -5 6 12 7 21 1 21 -5 0 -12 -7 -15 -16z"/>
<path d="M6296 3044 c-3 -9 -6 -25 -6 -35 0 -20 1 -20 32 3 26 18 29 23 15 26
-9 2 -17 8 -17 13 0 15 -17 10 -24 -7z"/>
<path d="M1957 2973 c-10 -18 -13 -33 -8 -33 15 0 33 28 29 47 -3 14 -8 11
-21 -14z"/>
<path d="M8513 2921 c2 -41 11 -52 20 -28 4 10 6 10 6 0 1 -7 6 -13 12 -13 11
0 43 69 35 78 -3 2 -8 -4 -12 -14 -3 -10 -9 -28 -14 -39 -8 -19 -9 -19 -9 3
-1 13 -5 20 -11 17 -5 -3 -10 1 -10 9 0 8 -4 18 -10 21 -6 4 -9 -10 -7 -34z"/>
<path d="M1266 2934 c-9 -24 -7 -28 9 -14 17 14 20 30 6 30 -5 0 -12 -7 -15
-16z"/>
<path d="M8924 2919 c-3 -6 -1 -16 5 -22 8 -8 11 -5 11 11 0 24 -5 28 -16 11z"/>
<path d="M8861 2884 c0 -11 3 -14 6 -6 3 7 2 16 -1 19 -3 4 -6 -2 -5 -13z"/>
<path d="M8998 2881 c-16 -19 -13 -34 10 -39 10 -2 11 4 7 19 -5 14 -2 25 6
30 8 5 9 9 4 9 -6 0 -18 -8 -27 -19z"/>
<path d="M8567 2808 c-22 -50 -21 -56 4 -24 11 14 19 34 16 44 -3 12 -8 7 -20
-20z"/>
<path d="M8610 2816 c0 -9 5 -16 10 -16 6 0 10 4 10 9 0 6 -4 13 -10 16 -5 3
-10 -1 -10 -9z"/>
<path d="M9135 2774 c-4 -16 -8 -35 -11 -41 -2 -7 0 -13 5 -13 9 0 23 71 16
78 -2 2 -7 -9 -10 -24z"/>
<path d="M8978 2744 c-5 -4 -8 -16 -8 -26 0 -10 -5 -18 -11 -18 -6 0 -8 -7 -5
-16 4 -9 2 -22 -4 -29 -7 -8 -7 -15 -2 -19 6 -3 13 6 17 21 3 16 11 31 17 34
5 3 8 18 6 34 -2 15 -6 23 -10 19z"/>
<path d="M9362 2616 c1 -35 0 -62 -4 -59 -5 2 -8 -6 -8 -19 0 -16 3 -19 8 -10
5 7 15 11 23 9 8 -2 11 -2 7 0 -4 2 -4 11 -1 19 5 13 7 13 14 2 7 -10 9 -10 9
2 0 8 -9 26 -20 40 -22 28 -26 66 -7 73 7 3 4 6 -6 6 -17 1 -18 -6 -15 -63z"/>
<path d="M9443 2644 c3 -3 2 -16 -3 -29 -7 -20 -6 -22 11 -18 24 7 27 53 2 53
-9 0 -14 -3 -10 -6z"/>
<path d="M9481 2560 c-6 -14 -19 -38 -29 -55 -10 -16 -18 -35 -17 -42 0 -15
15 -30 15 -15 0 7 13 25 30 40 26 24 28 31 21 62 l-8 35 -12 -25z"/>
<path d="M8618 1995 c-4 -16 -1 -25 8 -25 8 0 11 8 9 21 -6 32 -12 33 -17 4z"/>
<path d="M8830 1948 c0 -7 -3 -31 -6 -53 -5 -27 -3 -37 3 -30 14 14 24 83 12
90 -5 4 -9 0 -9 -7z"/>
<path d="M9321 1924 c0 -11 3 -14 6 -6 3 7 2 16 -1 19 -3 4 -6 -2 -5 -13z"/>
<path d="M8572 1843 c-10 -4 -10 -8 -1 -19 13 -16 29 -10 29 12 0 15 -6 16
-28 7z"/>
<path d="M8800 1778 c0 -19 2 -20 10 -8 13 19 13 30 0 30 -5 0 -10 -10 -10
-22z"/>
<path d="M8615 1661 c-3 -16 -15 -37 -26 -47 -10 -9 -19 -22 -19 -28 0 -6 5
-4 10 4 7 12 12 12 22 2 10 -10 10 -17 0 -32 -16 -26 -15 -30 3 -30 8 0 15 6
15 14 0 7 7 19 15 26 8 7 15 21 15 31 0 11 5 19 11 19 6 0 9 6 6 13 -2 6 -10
11 -16 9 -7 -1 -10 2 -7 7 7 11 -3 41 -14 41 -5 0 -11 -13 -15 -29z"/>
<path d="M9220 1626 c0 -8 5 -18 10 -21 6 -3 10 1 10 9 0 8 -4 18 -10 21 -5 3
-10 -1 -10 -9z"/>
<path d="M8686 1576 c-8 -40 7 -76 29 -76 18 0 19 16 4 61 -17 51 -26 54 -33
15z"/>
<path d="M8527 1542 c-3 -9 -8 -26 -13 -36 -5 -14 -4 -17 4 -12 7 4 12 2 12
-3 0 -6 -8 -11 -17 -11 -15 0 -16 -2 -3 -10 11 -7 18 -3 26 13 22 43 25 64 10
70 -8 3 -16 -2 -19 -11z"/>
<path d="M8580 1505 c-7 -9 -10 -18 -6 -22 3 -3 6 -1 6 6 0 8 7 11 15 7 8 -3
15 -1 15 4 0 17 -18 20 -30 5z"/>
<path d="M8534 1444 c-27 -13 -39 -28 -54 -66 -2 -4 -6 -28 -10 -52 -5 -33 -3
-46 7 -50 8 -3 13 2 13 13 0 11 7 18 17 17 9 0 19 8 22 19 3 11 13 31 23 45
19 29 33 90 21 90 -4 0 -22 -7 -39 -16z m16 -23 c0 -5 -7 -14 -15 -21 -12 -10
-15 -10 -15 2 0 8 3 18 7 21 9 10 23 9 23 -2z"/>
<path d="M8636 1371 c-9 -10 -14 -25 -11 -33 4 -9 0 -18 -7 -20 -17 -7 -17
-80 0 -86 8 -2 10 5 5 28 -3 18 -2 35 4 39 11 7 43 69 43 83 0 14 -16 9 -34
-11z"/>
<path d="M8376 1355 c-3 -8 -1 -15 3 -15 5 0 11 7 15 15 3 8 1 15 -3 15 -5 0
-11 -7 -15 -15z"/>
<path d="M8433 1227 c2 -30 5 -33 22 -27 11 4 22 16 24 26 2 11 0 16 -5 11 -4
-4 -15 0 -25 9 -17 15 -18 14 -16 -19z"/>
<path d="M8036 1236 c3 -8 12 -17 21 -20 11 -5 13 -2 9 10 -3 8 -6 18 -6 20 0
2 -7 4 -15 4 -8 0 -12 -6 -9 -14z"/>
<path d="M9052 1198 c-16 -16 -15 -28 3 -28 8 0 15 9 15 20 0 23 -2 24 -18 8z"/>
<path d="M8412 1139 c-17 -27 -6 -38 15 -16 11 11 14 20 7 27 -6 6 -14 2 -22
-11z"/>
<path d="M8011 1085 c-7 -16 -24 -42 -38 -57 -15 -15 -23 -31 -20 -35 4 -3 7
-1 7 5 0 7 7 12 15 12 17 0 59 75 52 93 -3 7 -10 -1 -16 -18z"/>
<path d="M8380 1063 c0 -11 -6 -25 -12 -32 -10 -11 -10 -12 -1 -7 20 11 35 44
23 51 -5 3 -10 -2 -10 -12z"/>
<path d="M8487 1000 c-15 -16 -27 -41 -27 -55 0 -14 -6 -25 -13 -25 -7 0 -18
-9 -25 -20 -7 -11 -8 -20 -4 -20 15 0 52 45 52 63 0 9 12 24 28 34 15 9 29 18
30 19 2 1 0 10 -5 19 -8 13 -13 11 -36 -15z"/>
<path d="M8300 1000 c0 -5 5 -10 11 -10 5 0 7 5 4 10 -3 6 -8 10 -11 10 -2 0
-4 -4 -4 -10z"/>
<path d="M6647 910 c-20 -33 -32 -62 -26 -65 5 -4 12 1 15 9 3 8 15 18 26 22
14 4 18 12 15 26 -3 11 -2 31 3 44 15 39 5 28 -33 -36z"/>
<path d="M7923 954 c-7 -3 -9 -12 -6 -20 3 -8 0 -14 -6 -14 -6 0 -11 -11 -11
-25 0 -13 -8 -29 -17 -34 -16 -9 -16 -10 3 -11 21 0 31 16 52 78 10 32 8 35
-15 26z"/>
<path d="M7526 923 c-6 -14 -5 -15 5 -6 7 7 10 15 7 18 -3 3 -9 -2 -12 -12z"/>
<path d="M7214 855 c-14 -45 -4 -45 18 0 13 25 14 35 5 35 -7 0 -17 -16 -23
-35z"/>
<path d="M7752 870 c-6 -11 -8 -21 -3 -25 5 -3 13 4 16 16 9 28 2 33 -13 9z"/>
<path d="M7873 820 c-18 -14 -20 -19 -8 -24 9 -3 15 0 15 8 0 8 6 16 13 19 6
2 10 7 7 10 -3 3 -15 -3 -27 -13z"/>
<path d="M7170 770 c-6 -12 -9 -24 -7 -27 3 -2 11 5 17 17 6 12 9 24 7 27 -3
2 -11 -5 -17 -17z"/>
<path d="M6244 743 c-3 -10 -10 -26 -15 -36 -6 -11 -8 -21 -6 -24 3 -2 11 10
18 26 8 17 17 31 21 31 5 0 8 5 8 10 0 17 -20 11 -26 -7z"/>
<path d="M6826 699 c-20 -48 -20 -60 -1 -35 7 10 18 15 24 12 11 -7 16 -1 24
34 5 20 2 26 -13 27 -13 1 -23 -10 -34 -38z"/>
<path d="M2395 600 c7 -12 32 -13 39 -2 2 4 -7 9 -20 10 -15 1 -22 -2 -19 -8z"/>
<path d="M1970 581 c-17 -33 -11 -48 10 -22 11 13 20 27 20 32 0 16 -19 9 -30
-10z"/>
<path d="M3895 590 c-3 -5 -1 -10 4 -10 6 0 11 5 11 10 0 6 -2 10 -4 10 -3 0
-8 -4 -11 -10z"/>
<path d="M3853 515 c-8 -22 6 -33 17 -15 13 20 12 30 0 30 -6 0 -13 -7 -17
-15z"/>
<path d="M5350 469 c0 -5 5 -7 10 -4 6 3 10 8 10 11 0 2 -4 4 -10 4 -5 0 -10
-5 -10 -11z"/>
<path d="M4578 423 c-10 -2 -18 -9 -18 -14 0 -14 20 -11 36 6 16 15 13 16 -18
8z"/>
<path d="M4624 333 c4 -7 2 -22 -4 -33 -6 -12 -10 -29 -8 -38 3 -12 9 -8 22
17 17 32 17 34 0 50 -9 9 -14 10 -10 4z"/>
<path d="M4930 318 c0 -19 2 -20 10 -8 13 19 13 30 0 30 -5 0 -10 -10 -10 -22z"/>
<path d="M5386 265 c-10 -7 -16 -19 -14 -26 2 -7 11 0 21 15 20 30 19 31 -7
11z"/>
<path d="M5570 234 c-17 -44 -11 -49 15 -14 29 40 29 40 10 40 -9 0 -20 -12
-25 -26z"/>
</g>
</svg>
